<?xml version="1.0" encoding="UTF-8"?>
<svg id="Laag_1" data-name="Laag 1" xmlns="http://www.w3.org/2000/svg" viewBox="0 0 805.31 245.05">
  <defs>
    <style>
      .cls-1, .cls-2 {
        fill: #fff;
      }

      .cls-2 {
        font-family: OldLondon, 'Old London';
        font-size: 34.65px;
      }
    </style>
  </defs>
  <path class="cls-1" d="M56.51,112.86c-10.31,10.07-20.29,15.1-30.05,15.1-5.38,0-10.31-1.76-14.69-5.16-4.37-3.52-7.51-8.18-9.42-13.84-1.57-4.78-2.35-9.94-2.35-15.48,0-7.68,1.12-15.23,3.36-22.91,5.94-3.9,11.88-8.18,17.94-12.71,5.05-3.78,10.88-8.43,17.49-13.84,7.85,1.01,14.69,3.65,20.41,7.8,6.62,4.66,10.99,10.95,13.12,18.63.78,2.9,1.23,5.79,1.23,8.69,0,11.2-5.72,22.53-17.04,33.73ZM18.95,62.26c-6.5,7.43-9.75,15.61-9.75,24.54,0,7.05,2.24,13.59,6.84,19.64,1.91-3.4,2.92-7.3,2.92-11.58v-32.6ZM33.19,56.22h-4.48v31.34c0,3.4-.67,6.42-2.02,9.06-.78,1.64-3.81,5.66-9.08,11.96,5.27,5.92,10.43,8.81,15.59,8.81v-61.17ZM35.88,56.6v14.35c4.04,3.9,7.96,5.92,11.88,5.92s7.4-2.01,10.65-6.17c-4.04-7.17-11.55-11.83-22.54-14.1ZM48.21,89.82c-3.92,0-8.07,2.14-12.33,6.29v21.27c9.98,0,17.94-6.67,24.11-20.01-3.48-5.03-7.4-7.55-11.77-7.55ZM59.76,72.96c-3.92,3.78-8.07,5.66-12.45,5.66-3.81,0-7.62-1.38-11.32-4.03v18c4.37-3.14,8.63-4.78,12.56-4.78,4.15,0,8.3,2.01,12.45,6.17,1.23-3.78,1.79-6.8,1.79-9.19,0-4.15-1.01-8.18-3.03-11.83Z"/>
  <path class="cls-1" d="M147.98,112.06c-4.02-.09-7.39.27-10.24,1-5.38,1.38-9.16,5.21-11.24,11.36l-.78-.55c-.09-5.34.46-11.96,1.57-19.6,1.14-6.4,2.26-12.92,3.38-19.44-3.4-2-6.62-2.54-9.69-1.76-2.64.68-5.75,2.84-9.1,6.57l2.63,12.91c1.3,6.4.64,12.43-1.91,17.94-2.68,5.92-6.82,9.6-12.42,11.03l-1.27.32c-1.48.38-4.71.33-9.77,0-2.81-.15-5.02-.09-6.7.35-1.9.49-4,1.65-6.16,3.57l-.18-.33c1.16-3.04,2.33-5.46,3.55-7.14,1.81-2.58,3.81-4.22,6.03-4.78l1.69-.43c.53-.14,2.37-.36,5.4-.76,1.19-.18,2.37-.36,3.32-.6l1.75-.7c3.91-1,6.33-4.36,5.46-8.63-.7-3.44-2.73-5.78-6.2-7.01-2.98-.98-6-1.08-9.27-.24l-2.53.65c1.35-3.21,3.48-5.26,6.55-6.04,1.79-.46,3.53-.65,4.98-.65-3.7-7.28-8.46-9.93-14.35-7.79l-2.38.86c1.05-3.01,2.9-4.86,5.75-5.59,2.43-.62,5.21-.59,8.37.22-3.47-8.34-9.22-11.48-17.14-9.45,1.57-2.65,3.78-4.34,6.42-5.01,1.58-.41,4.13-.43,7.73-.23l-1.98-9.72,22.19-24.13c16.42,1.53,26,8.8,28.65,21.83,2.19,10.78-.62,25.34-8.58,43.59,2.53-1.77,5.18-2.95,8.03-3.68,1.9-.49,5.03-.92,9.42-1.17l1.24-3.18,2.06.84-4.28,15.56ZM102.18,53.36l-3.74,3.45,8.65,42.54c.94,4.62,1.27,8.4.97,11.35-.44,3.85-2,7.12-4.67,9.8l.2.45.89.02c7.18-1.84,9.66-8.21,7.44-19.11l-.09-.98-9.66-47.52ZM117.7,53.75c-4.1-1.57-8.5-1.94-13.35-1.19l3.18,15.64c4.58,2.32,8.61,3.03,11.99,2.16,3.48-.89,6.39-3.51,8.73-7.85-2.39-4.12-5.88-7.09-10.55-8.77ZM129.33,65.1c-2.64,3.92-5.82,6.35-9.4,7.27-3.48.89-7.44.53-11.69-1.24l3.23,15.88c2.92-3.12,6.08-5.05,9.46-5.91,3.27-.84,6.66-.58,10.18.88.39-5.21.33-9.31-.25-12.15-.14-.71-.69-2.32-1.52-4.72Z"/>
  <path class="cls-1" d="M212.63,137.56c-3.09.52-6.5.87-10.21.87-8.2,0-15.62-1.91-22.43-5.56-7.27-4.17-12.99-10.07-16.86-17.54-4.18-8.33-6.34-17.71-6.34-27.96,0-11.98,2.63-22.92,7.89-32.65,5.72-10.42,13.3-17.36,23.05-21.01-11.29,10.42-18.87,26.74-18.87,42.72,0,10.42,3.25,20.32,9.59,29.52,1.39-2.95,2.17-7.47,2.17-13.2v-41.33l29.55-28.48c4.33,3.3,9.13,5.56,14.39,6.95,6.81,1.91,12.38,2.6,16.86,2.08l1.86-.17-21.19,25.7h16.4l-7.58,17.89h-24.29l-.16,47.4,5.73.7c9.12,0,19.64-5.21,31.4-15.63l.78.18c-7.73,17.19-18.25,27.09-31.71,29.52ZM202.73,37.71l-6.65,6.08v32.64c0,6.6-1.39,12.5-4.33,17.71-2.17,3.99-5.88,8.51-11.14,13.54,5.42,6.94,12.84,11.81,22.12,14.59V37.71ZM206.44,41.01v30.04l17.94-21.88-17.94-8.16Z"/>
  <path class="cls-1" d="M314.05,114.98c-8.59-7.95-18.37-11.84-29.37-11.84-9.49,0-20.18,3.21-32.08,9.47l-.9-1.69c9.79-8.62,15.21-16.74,16.27-24.35v-1.52c0-8.12-4.22-12.85-12.65-14.03,2.11-2.03,4.37-3.04,6.78-3.04,1.81,0,3.77.34,5.72.84l.15-1.02c0-8.28-5.12-13.69-12.8-13.19l-3.61.17c1.81-4.57,5.12-6.93,10.09-6.93h2.56c.6,0,1.51.17,2.71.68l-.3-8.12c-.15-5.24.76-10.65,2.86-15.9,1.96-4.73,4.97-9.64,9.04-14.88-4.37,3.04-8.89,4.57-13.41,4.57-1.66,0-4.07-.51-7.23-1.35s-5.27-1.35-6.63-1.35c-3.01,0-6.03,2.37-8.89,7.27l-1.05-1.02c2.26-11.84,8.13-17.75,17.47-17.75h1.2c2.56,0,6.03.68,10.09,2.2,4.22,1.35,7.08,2.03,8.74,2.03,1.96,0,4.07-.34,6.18-1.02.45-.17,2.41-1.01,5.57-2.53l.45.84c-8.28,7.95-12.35,17.25-12.35,28.24,0,2.03.15,5.07.6,9.3.45,4.23.6,7.27.6,9.47,0,2.53.3,8.28.3,10.82,0,8.28-1.05,15.38-3.16,21.64-1.66,4.56-4.82,11.16-9.64,19.44l.45.51c7.38-6.59,12.5-12.68,15.66-18.6,3.46-6.93,5.27-15.05,5.27-24.52,0-3.21-.15-7.78-.6-14.04-.3-6.26-.45-10.82-.45-14.03l-.15-1.52c0-9.81,2.26-16.91,6.63-21.47,4.22-4.23,10.69-6.26,19.58-6.26l.3,1.18c-9.34,1.52-14.01,7.44-14.01,17.75,0,1.86.15,4.57.6,8.29.45,3.55.6,6.26.6,8.12v7.95c0,11.84-1.66,21.47-5.12,28.75-3.31,7.27-9.19,14.2-17.77,21.13l.3.68c9.19-3.21,16.42-4.73,21.99-4.73s10.09,1.18,14.16,3.72c1.36.84,3.17,2.03,5.42,3.72,1.36,1.02,2.41,1.52,3.01,1.52.9,0,2.56-1.18,5.12-3.72l2.26,2.37-16.57,17.75Z"/>
  <path class="cls-1" d="M386.46,34.81c-1.48,2.33-2.08,5.49-1.93,9.32l.15,2.83c.15,3.83.74,10.32,1.63,19.64,2.52,18.64,3.71,30.46,3.71,35.45,0,9.16-1.33,16.81-4.15,22.97-4.45,9.82-10.82,14.65-19.13,14.65h-1.63c-3.41,0-7.71-1-12.75-2.83-8.6-3.5-14.09-5.16-16.46-5.16-4.75,0-8.45,2.83-11.27,8.32l-.3-.17c0-10.15,5.19-19.31,14.09-20.81l3.26-.17,3.26.17c5.19.17,8.3-1.33,9.64-4.83.74-3.16,1.04-6.49,1.04-9.99,0-9.15-1.63-15.48-4.89-18.81-1.63-1.83-4-2.66-7.12-2.66-2.67,0-6.52,1-11.42,3,2.23-9.15,9.79-14.15,18.54-14.15.74-8.16,1.93-14.31,3.56-18.81,1.63-4.49,4.89-9.82,9.49-15.81-4.75,2.5-8.6,3.66-11.57,3.66-1.33,0-3.56-.33-6.52-.83-2.82-.67-5.04-1-6.52-1h-.89c-3.26,0-6.08,2.5-8.3,7.66l-.89-.17c1.93-9.99,8.45-17.48,17.2-17.48h1.04c2.52,0,4.89.17,7.26.67,5.34,1,8.45,1.5,9.19,1.5,2.37,0,6.38-.83,11.86-2.33l.15.5c-8.16,7.49-12.31,18.48-12.31,32.63,0,4.99.29,10.32,1.04,16.14,1.78,14.81,2.67,23.14,2.67,24.97,0,12.48-5.19,18.64-15.72,18.64,6.23,8.16,11.86,12.15,17.05,12.15l1.63-.33c5.34-1.17,7.12-6.16,7.12-14.15,0-1.83-.15-4.49-.59-8.16-.44-3.66-.59-6.32-.59-8.16-2.82-19.47-4.15-32.96-4.15-40.28,0-22.47,7.27-33.79,21.8-33.79v1.17c-3.71,1.33-6.08,3-7.27,4.83Z"/>
  <path class="cls-1" d="M464.76,48.99l-1.51,11.33,14.68,2.46-4.45,10.25-11.66-1.95-2.65,19.14c-1.32,9.1-3.8,15.73-7.53,19.76-3.62,4.05-9.61,6.63-17.77,8.01l-14.47,2.35c-.98.19-2.35.08-4.23-.23-1.77-.3-3.6-.96-5.39-1.86-4.17-2.25-6.47-3.35-6.87-3.54-2.39-.4-4.32,1.31-5.88,4.99l-.42-.07c.98-7.36,3.52-12.07,7.73-14.11,1.77-.54,3.4-.74,4.85-.5,2.19.37,4.56,1.72,7.33,4.1,3.89,3.52,6.19,5.46,6.87,5.93l.63.1c.73.12,1.64-.32,2.73-1.33,2.42-2.22,4.09-6.72,4.99-13.5l4.46-33.53-7.34-1.59c-4.86-1.05-9.06.15-12.63,3.74l-.52-.09c.73-5.49,3.48-9.33,8.13-11.54,3.85-1.74,8.48-2.16,13.79-1.27l1.46-10.98c5.93.99,10.97.76,15.32-.78,2.57-.88,7.16-3.46,13.76-7.49,3.97,2.93,7.98,4.8,11.94,5.47,3.64.61,7.39.4,11.27-.74-1.42,4.3-3.55,7.53-6.38,9.56-3.06,2.23-6.58,3.08-10.43,2.43-3.33-.56-6.64-2.07-9.83-4.51ZM455.06,48.32c-1.12.41-2.21.59-3.17.66-.1-.02-1.18.04-3.3.04l-5.02,37.74c-.95,7.13-2.3,12.52-3.96,16.18-2.23,4.76-5.74,8.71-10.52,11.85l.15.5c12.68-2.53,18.21-9.73,20.16-24.33l5.67-42.65Z"/>
  <path class="cls-1" d="M506.22,127.58c-2.1-.17-4.37-.51-6.81-1.13-5.38-1.37-9.99-3.86-13.97-7.38-4.22-3.94-7.19-8.77-8.74-14.31-1.64-6.16-1.82-12.67-.46-19.39,1.59-7.86,4.76-14.59,9.49-20.09,5.13-5.88,11.02-9.17,17.89-9.93-8.78,4.95-15.91,14.39-18.03,24.87-1.38,6.83-.56,13.86,2.38,20.96,1.3-1.7,2.41-4.54,3.17-8.29l5.47-27.1,23.15-13.75c2.4,2.89,5.25,5.17,8.52,6.95,4.21,2.39,7.77,3.77,10.78,4.18l1.24.2-17.3,13.32,10.75,2.73-7.34,10.47-15.93-4.05-6.38,31.06,3.66,1.41c5.98,1.52,13.57-.14,22.66-5.01l.49.24c-7.35,9.98-15.56,14.72-24.7,14.07ZM512.94,60.45l-5.17,2.88-4.32,21.41c-.87,4.33-2.57,7.97-5.18,10.89-1.95,2.26-4.98,4.6-9.1,7.02,2.63,5.46,6.86,9.89,12.58,13.25l11.19-55.46ZM514.94,63.23l-3.98,19.7,14.66-11.36-10.69-8.34Z"/>
  <path class="cls-1" d="M65.27,239.11c-1.81.65-3.82,1.22-6.04,1.62-4.91.89-9.52.55-13.91-.9-4.71-1.71-8.65-4.63-11.61-8.68-3.22-4.54-5.32-9.92-6.2-16.06-1.03-7.18-.39-14.02,1.92-20.41,2.54-6.86,6.48-11.84,12.01-15.08-6.51,8.32-9.01,17.42-7.56,27.51.89,6.24,3.6,11.84,8.2,16.77.58-1.92.66-4.71.16-8.14l-3.55-24.76,15.53-20.31c6.41,2.9,12.81,3.77,19.01,2.65l-6.57,11.22c-4.24-1.05-8.75-2.05-13.44-2.91l7.06,49.31c1.02-.18,3.5-.1,4.52-.28,3.89-.7,7.5-2.74,10.73-6.1.33-.38,2.2-2.53,5.71-6.58l.48.02c-3.16,11.14-8.61,18.2-16.47,21.12ZM50.77,180.36l-3.46,4.36,2.8,19.56c.58,4.06.24,7.64-1,10.96-.97,2.52-2.9,5.65-5.68,9.46,3.85,3.68,8.72,5.79,14.6,6.33l-7.26-50.66Z"/>
  <path class="cls-1" d="M135.03,211.44c-8.61,8.41-16.95,12.61-25.1,12.61-4.49,0-8.61-1.47-12.27-4.31-3.65-2.94-6.27-6.83-7.87-11.56-1.31-3.99-1.97-8.3-1.97-12.93,0-6.41.94-12.72,2.81-19.13,4.96-3.26,9.93-6.83,14.98-10.62,4.21-3.15,9.08-7.04,14.61-11.56,6.56.84,12.27,3.05,17.04,6.52,5.53,3.89,9.18,9.14,10.96,15.56.66,2.42,1.03,4.84,1.03,7.25,0,9.36-4.78,18.81-14.23,28.17ZM103.66,169.18c-5.43,6.2-8.15,13.03-8.15,20.5,0,5.89,1.87,11.35,5.71,16.4,1.59-2.84,2.44-6.1,2.44-9.67v-27.22ZM115.56,164.14h-3.74v26.17c0,2.84-.56,5.36-1.69,7.57-.66,1.37-3.18,4.73-7.59,9.99,4.4,4.94,8.71,7.36,13.02,7.36v-51.09ZM117.8,164.45v11.98c3.37,3.26,6.65,4.94,9.93,4.94s6.18-1.68,8.9-5.15c-3.37-5.99-9.64-9.88-18.82-11.77ZM128.1,192.2c-3.28,0-6.74,1.79-10.3,5.26v17.76c8.33,0,14.98-5.57,20.13-16.71-2.9-4.2-6.18-6.31-9.83-6.31ZM137.75,178.12c-3.28,3.15-6.74,4.73-10.39,4.73-3.18,0-6.37-1.16-9.46-3.36v15.03c3.65-2.63,7.21-3.99,10.49-3.99,3.46,0,6.93,1.68,10.39,5.15,1.03-3.15,1.5-5.68,1.5-7.67,0-3.47-.84-6.83-2.53-9.88Z"/>
  <path class="cls-1" d="M233.2,233.84c-5.4-2.35-8.04-7.42-8.04-15.21l-.11-52.2-7.93-6.56-2.2,1.24v25.98h5.62l-5.73,9.03v21.4l2.53-2.1,1.54,1.98-16.53,16.45c-4.19-5.07-7.93-8.9-11.13-11.63v-.99c.99-.87,1.54-1.61,1.87-1.98.55-.87.88-1.73.88-2.84l-.11-20.29h-12.12v23.13c0,8.04-2.42,13.85-7.27,17.19-2.42,1.73-4.96,2.6-7.6,2.6-.33,0-3.42-.5-9.04-1.36-.99-.12-1.87-.25-2.53-.25-3.53,0-6.17,1.86-7.93,5.44h-.66c0-8.04,2.98-12.74,8.92-14.1,7.6-1.85,12.12-3.96,13.33-6.31.77-1.98,1.21-3.96,1.21-5.94,0-6.43-3.53-12.99-8.7-14.84-1.21-.62-2.42-.87-3.75-.87-1.21,0-3.2.49-5.84,1.48,1.43-7.3,5.07-10.14,12.01-11.13,0-13.23,4.41-22.64,13.22-27.95l19.72-12c4.74,3.46,7.71,7.92,8.71,13.48l18.18-13.11,11.46,8.78,4.3-3.59,1.21.99c-1.43,2.23-2.42,3.84-2.98,4.95-.88,1.85-1.32,3.71-1.32,5.69v48.12c0,4.45.88,6.68,2.65,6.68.77,0,1.54-.62,2.42-1.73l1.43,1.61-9.7,10.76ZM181.19,163.7c-4.85,4.45-6.28,7.92-6.28,15.21v33.15c0,7.18-2.2,12.12-6.72,14.97,1.98.74,3.53,1.11,4.52,1.11,4.63,0,6.94-3.22,6.94-9.65v-46.01c0-2.84.66-5.56,1.87-8.41l-.33-.37ZM187.03,160.24c-3.64,3.84-5.4,8.16-5.4,12.99v21.15l4.41-7.3h7.82l.11-21.4c0-3.59-2.32-5.44-6.94-5.44ZM212.6,163.09l-7.16,5.44.11,18.55h7.05v-24ZM212.6,196.11h-7.05l-.11,20.78c0,3.09,1.21,5.2,3.64,6.31l3.53-3.59v-23.5Z"/>
  <path class="cls-1" d="M298.46,218.22c-4.73-2.19-9.35-3.81-13.87-4.73l-.1,19.26-8.84-.35-8.73.35-.1-20.53c-5.24,0-11.2,1.5-17.98,4.5l-.62-.92c4.01-6.57,10.07-11.42,18.39-14.3-.72-5.65-2.57-10.5-5.45-14.42-2.46-3.34-6.16-6.69-11.1-9.8l16.75-13.03.1-5.77c.1-5.19-1.23-8.42-4.01-9.92-1.34-.58-2.67-.92-4.21-.92-2.06,0-4.31.46-6.68,1.27v-1.5c4.21-3.81,8.53-5.77,13.05-5.77,7.09,0,11.4,5.31,12.12,13.49l5.03-3.35v-10.38h2.36v8.53l10.99-8.42c6.68,4.96,11.4,9.57,14.18,13.84,2.36,3.69,3.6,9.34,3.6,16.95v32.18l-14.9,13.72ZM266.72,166.9l-8.01,5.77,8.01,7.38v-13.15ZM282.23,154.44l-4.52,3v72.2h4.52v-75.2ZM297.44,157.1c-3.08-3.81-6.88-5.65-11.3-5.65l-1.64,1.38v17.18c2.16,2.88,5.14,4.27,8.73,4.27s6.58-1.39,8.94-4.04c0-5.07-1.54-9.46-4.73-13.15ZM292.92,187.43c-2.98,0-5.75.92-8.42,2.88v10.26c4.83,1.27,7.81,2.08,8.73,2.42,2.88.92,5.86,2.08,8.84,3.57l.1-15.57c-2.88-2.42-5.96-3.57-9.25-3.57ZM302.06,173.47c-2.98,1.73-6.06,2.65-9.04,2.65s-5.86-.92-8.42-2.65v14.53c2.57-1.61,5.34-2.42,8.12-2.42,2.98,0,6.16.81,9.35,2.42v-14.53Z"/>
  <path class="cls-1" d="M379.41,232.79c-4.32-3.02-7.12-7.87-8.53-14.55l-17.05,14.29-16.59-9.83c-1.99-1.18-3.62-1.84-4.91-1.84-1.75,0-3.27,1.71-3.27,3.8,0,1.05,1.17,3.93,1.17,5.11,0,1.84-.93,2.75-2.8,2.75-1.75,0-2.57-1.18-2.57-3.41,0-2.75,1.4-6.29,4.09-10.88l10.4-17.31c-7.71-8-11.8-15.61-12.38-22.82l-.23-2.89c0-7.47,2.69-14.29,8.06-20.46,5.37-6.16,12.15-9.18,20.21-9.18s16,2.89,23.48,8.66c3.85-4.98,8.18-8.13,13.2-9.44l.23.26c-3.15,3.28-5.26,6.16-6.54,8.39-1.75,3.28-2.69,6.82-2.57,10.75l.94,44.46c.12,6.16,1.28,10.49,3.5,12.85l3.74-3.15,1.75,2.1-13.32,12.33ZM352.08,155.82c-5.96,0-10.98,1.97-15.07,6.03-4.32,4.2-6.54,9.57-6.54,16.13,0,7.61,3.39,14.43,10.28,20.59l15.54-25.57c-1.17-2.1-2.92-3.15-5.14-3.15l-1.87.26c-2.92.39-5.26,2.36-7.01,5.64,0-4.07,1.29-7.34,3.86-9.7,2.33-2.1,5.37-3.15,9.23-3.15,2.45,0,4.67.26,6.66.79l2.8-4.72c-4.44-2.1-8.65-3.15-12.73-3.15ZM371,203.29h-29.32l-4.32,7.08,23.83,12.33,9.81-8.92v-10.49ZM370.54,165.26l-2.34-3.8h-.93l-19.74,32.65h23.01v-28.85Z"/>
  <path class="cls-1" d="M454.53,219.7c-3.03-1.37-5.69-2.19-8.05-2.56-4.45-.7-8.31,1-11.48,5l-.45-.67c1.31-4.09,3.43-8.96,6.24-14.41,2.52-4.5,5.05-9.1,7.58-13.7-2.08-2.62-4.39-4.09-6.92-4.48-2.18-.34-5.11.3-8.62,2.05l-1.33,10.68c-.66,5.29-2.71,9.67-6.07,13.04-3.57,3.64-7.67,5.1-12.3,4.37l-1.05-.16c-1.22-.19-3.67-1.27-7.44-3.16-2.1-1.03-3.8-1.69-5.19-1.91-1.57-.25-3.47-.04-5.61.72l-.05-.31c1.67-1.94,3.18-3.4,4.54-4.29,2.04-1.38,3.98-1.97,5.82-1.69l1.4.22c.44.07,1.9.5,4.3,1.17.95.25,1.9.5,2.68.62l1.51.04c3.23.51,5.94-1.27,6.38-4.8.35-2.84-.59-5.29-2.92-7.35-2.01-1.71-4.29-2.77-6.99-3.19l-2.1-.33c1.85-2.01,4.01-2.87,6.54-2.48,1.48.23,2.86.65,3.96,1.12-.94-6.74-3.88-10.3-8.92-10.59l-2.03-.12c1.58-1.95,3.46-2.76,5.82-2.39,2.01.31,4.12,1.24,6.32,2.89-.5-7.47-4.06-11.73-10.61-12.76,1.88-1.51,4-2.07,6.18-1.73,1.31.21,3.26,1.01,5.94,2.33l1-8.04,23.11-11.17c12.1,6.49,17.53,15.14,16.19,25.92-1.11,8.92-7,19.09-17.76,30.4,2.38-.53,4.7-.56,7.06-.19,1.57.25,4.07.94,7.48,2.17l1.76-2.02,1.35,1.31-7.27,10.46ZM434.77,160.14l-3.74,1.41-4.37,35.19c-.48,3.82-1.2,6.81-2.18,8.95-1.33,2.79-3.35,4.77-6.08,5.94l.04.41.67.31c5.94.93,9.47-3.11,10.59-12.13l.19-.77,4.88-39.31ZM446.49,165.47c-2.71-2.52-5.97-4.23-9.86-5.24l-1.61,12.94c2.89,3.25,5.78,5.1,8.57,5.54,2.88.45,5.77-.6,8.67-3.14-.76-3.92-2.65-7.31-5.78-10.1ZM452.42,177.89c-3.02,2.13-6.06,2.95-9.03,2.48-2.88-.45-5.81-2.01-8.58-4.74l-1.63,13.14c3.03-1.42,5.93-1.87,8.73-1.43,2.71.42,5.22,1.72,7.52,3.98,1.64-3.84,2.65-6.98,2.94-9.33.07-.59.07-1.99.06-4.09Z"/>
  <path class="cls-1" d="M501.78,219.67l-14.59-3.85c-3.43-.91-6.41-.98-9.01-.24-3.26.87-5.27,3.08-6.01,6.65-1.05,5.01,1.72,9.1,6.46,10.25l2.42.54c3.48-.61,7.02-1.09,10.48-1.6,4.85-.65,8.29-.66,10.35-.11,3,.79,5.16,2.59,6.5,5.28.68,1.5.89,3.08.53,4.82-.61,2.89-1.94,4.06-3.91,3.54l-1.31-.65c-1.27-.84-1.72-2.18-1.33-4.01l.69-1.55c.86-1.09,1.39-1.87,1.51-2.45.01-.5-.1-.84-.16-.96.02-.5-.37-.81-.97-.97-.43-.11-1.07-.08-1.84.12-3.28.96-8.27,2.29-14.88,4-2.39.59-4.74.58-7.06-.04-3.26-.86-5.81-2.96-7.58-6.17-1.77-3.21-2.31-6.71-1.56-10.28.79-3.76,2.72-6.5,5.76-8.04,2.74-1.41,5.88-1.7,9.32-.79l.75-3.16c.69-2.87.66-5.32.1-7.4-1.27-3.89-3.3-7.18-6.3-9.7l.08-.39,1.89.5c2.75.73,5.03,1.94,6.85,3.64l.39-1.01c.75-3.56.58-6.66-.52-9.19-.9-2.17-2.79-4.4-5.62-6.87,1.05-.23,2.12-.15,3.32.16,2.23.59,4.06,1.38,5.46,2.46l1.59-6.7c1.77-7.16.16-11.14-6.1-12.8l-.43-.11.1-.48c2.77-.69,5.23-.75,7.29-.21,5.15,1.36,8.67,6.16,8.98,12.03,6.91-3.16,12.57-4.21,16.95-3.05,3.95,1.04,6.97,3.47,9.05,7.37,1.95,3.67,2.81,7.76,2.46,12.45-.18,3-.53,5.55-.99,7.77-3.55,16.96-13.98,25.19-29.08,21.2ZM506.88,175.05l-4.29,1-8.34,39.79,3.86,1.02,8.77-41.82ZM514.44,174.41c-1.37-.36-3.19-.33-5.43-.01l-2.52,12.04c2.11,2.9,4.29,4.59,6.61,5.2,2.23.59,5.07.02,8.49-1.62.53-9.01-1.82-14.21-7.14-15.61ZM510.7,202.2c-2.49-.66-5.01-.31-7.71.91l-2.99,14.26,1.2.32c3.6.95,6.45.79,8.51-.4,3.21-1.9,5.8-5.18,7.94-9.8-2.11-2.9-4.46-4.64-6.95-5.29ZM521.46,191.92c-3.3,1.47-6.29,1.9-9.03,1.17-2.32-.61-4.47-1.99-6.38-4.13l-2.54,12.14c2.47-.97,4.86-1.16,7.35-.5,2.66.7,5.21,2.39,7.63,5.07,1.03-3.19,1.69-5.45,1.99-6.9.32-1.54.66-5.32.98-6.86Z"/>
  <text class="cls-2" transform="translate(515.26 160.14) scale(.89 1)"><tspan x="0" y="0" xml:space="preserve">01                           </tspan></text>
  <text class="cls-2" transform="translate(270.13 135.79) scale(.89 1)"><tspan x="0" y="0" xml:space="preserve">00                           </tspan></text>
  <text class="cls-2" transform="translate(21.14 160.14) scale(.89 1)"><tspan x="0" y="0" xml:space="preserve">00                           </tspan></text>
</svg>